#!OML:ASF F:\VICON\USERDATA\INSTALL\rory3\rory3.ASF
:FULLY-SPECIFIED
:DEGREES
37
root 0.705097536232518 18.14195335536273 13.958564313365823 -1.9158326178436784 -4.787620189777661 2.120025075252197
lfemur 10.800629730113322 -5.233506505560992 -27.1403539560672
ltibia 26.4843688742069
lfoot 7.3997017191676155 -12.47344000932201
ltoes -2.4668383250736663
rfemur -24.826847099988093 3.60967480080713 22.555698902528455
rtibia 15.457922678033384
rfoot -8.23801505831948 -2.689245284179746
rtoes -2.534342605981259
lowerback 9.48855437142348 -1.914478676445948 -2.350950186781408
upperback 0.3131255180426783 -2.7029384924788693 1.7378751465998357
thorax -4.728108241442345 -1.2974698423233488 3.4550660609599513
lowerneck -17.20623658621624 -2.6026717515976836 -2.317960480918334
upperneck 21.1365836083658 -3.227016050274658 0.2618388844198971
head 9.553381623990846 -1.6143387293614462 0.123778249492598
lclavicle -3.0471414431656943e-15 -5.827124717223793e-16
lhumerus -24.363610033418322 -4.914326796083112 81.63331495814488
lradius 29.048331217129018
lwrist 4.82851743674678
lhand -26.724672606475 21.742629847650157
lfingers 7.1250199999999975
lthumb -0.15405477439197285 51.709330359253414
rclavicle -3.0471414431656943e-15 -5.827124717223793e-16
rhumerus -32.99206031696419 -26.96434411332973 -77.30896494701479
rradius 26.492027108357036
rwrist 8.925638682677384
rhand -17.093824657136 23.369329384623782
rfingers 7.1250199999999975
rthumb 9.144328849650265 -6.727833624406313
38
root 0.6787958831716678 18.089753432559004 14.6173722360291 -2.36662389506514 -5.170130426541729 1.9978746693879121
lfemur 9.58279020919533 -4.7952221018739944 -26.48600034471978
ltibia 30.846148525733394
lfoot 6.6641549797517365 -12.265057962247202
ltoes -0.828845538668729
rfemur -24.512761140084688 3.4492579021876963 23.196084041593057
rtibia 16.457332398007146
rfoot -8.883296535678035 -2.1340186569583617
rtoes -0.5539209118826425
lowerback 9.632570229174464 -1.7394735489657402 -2.2418756927735055
upperback 0.42887683393215387 -2.4744048657817115 1.7158723663940583
thorax -4.745925119783369 -1.1829702179429296 3.295835981402637
lowerneck -17.105195808422287 -2.6171065091639765 -2.446356918024829
upperneck 21.03862501017292 -3.2414643622275667 0.19405217936752417
head 9.477856946163616 -1.6227150679974287 0.10398794944518538
lclavicle -3.310820462784796e-15 -7.5859292889177155e-16
lhumerus -24.74310068498793 -4.752456799851701 81.90002862017066
lradius 27.467921014770962
lwrist 4.8568682463802215
lhand -27.398977913884465 21.084674229556327
lfingers 7.1250199999999975
lthumb -0.8052910835689004 51.047884993497554
rclavicle -3.310820462784796e-15 -7.5859292889177155e-16
rhumerus -32.6962854365958 -27.156583717278565 -77.40365290342393
rradius 25.970560599486987
rwrist 9.46181224345894
rhand -17.32663221928892 23.48551512882814
rfingers 7.1250199999999975
rthumb 8.919744719404141 -6.648106184182897
39
root 0.6708181621402362 18.026949846802136 15.840110594062374 -2.7747628639786015 -5.588368306102135 1.6395762295967904
lfemur 8.165060702204379 -4.047465027343987 -24.842661531519987
ltibia 35.970631568817566
lfoot 5.973482102724987 -11.168614073954224
ltoes 0.64173374022115
rfemur -23.578376798624955 3.6070842458646855 24.291501412293556
rtibia 19.12658467712478
rfoot -9.919374908264512 -1.496944207306698
rtoes 2.6966301902447825
lowerback 9.800003774658405 -1.3867774102999135 -1.8230058866306276
upperback 0.5484984408920461 -1.965348478044262 1.7726094215655688
thorax -4.773368382183848 -0.9325459336296723 3.122418860578132
lowerneck -16.977861356235177 -2.616951876848909 -2.447857633127329
upperneck 20.983719245428617 -3.237553946255084 0.09234735587814002
head 9.418997885383778 -1.6247715864612404 0.05894462916875823
lclavicle -3.0827728805986007e-15 -6.064890444061795e-16
lhumerus -25.157054925514338 -4.009516945350561 82.24452393878921
lradius 25.681227346733046
lwrist 4.843197097280639
lhand -27.807529407168175 20.81576481230296
lfingers 7.1250199999999975
lthumb -1.1998685223345364 50.7766853500723
rclavicle -3.0827728805986007e-15 -6.064890444061795e-16
rhumerus -32.08925338960599 -26.73925387557722 -77.59120727569443
rradius 25.499630885509482
rwrist 9.609091639428344
rhand -17.506441859592027 23.37827795430267
rfingers 7.1250199999999975
rthumb 8.746271985520515 -6.727883032339894
40
root 0.6429798980358201 17.961034310620676 16.456028322273102 -3.134907665602643 -6.066868350494202 0.7624981821542418
lfemur 6.307879520894572 -3.062785139441656 -22.426050615585822
ltibia 41.50801138185746
lfoot 5.0516696419941285 -9.662088257149192
ltoes 1.611157564117947
rfemur -23.048462476681188 3.9648443483242106 25.59152242604937
rtibia 22.439870590278275
rfoot -11.854969160091484 -1.67588925792621
rtoes 5.380493945383679
lowerback 9.998542845449345 -1.0435963539590727 -1.2222067639306051
upperback 0.6549814208987224 -1.4253211535808754 1.9325675669483195
thorax -4.840181122693564 -0.6694927365994426 2.9190441331430255
lowerneck -16.93093665952108 -2.618120665468159 -2.403339836191252
upperneck 20.99564522226629 -3.231440218708109 -0.05621863514135017
head 9.408365381032654 -1.6280591884562399 -0.010550390574874113
lclavicle -3.0647937395458334e-15 -5.944996795081244e-16
lhumerus -25.59986142117385 -3.34901946542658 82.6486182840883
lradius 23.93160666438039
lwrist 4.717261519945246
lhand -28.093531234973565 20.607689639341483
lfingers 7.1250199999999975
lthumb -1.4760908040809597 50.57019807876105
rclavicle -3.0647937395458334e-15 -5.944996795081244e-16
rhumerus -31.473981692351476 -26.084523985641958 -77.88382322981752
rradius 24.8034203854075
rwrist 9.419021862602238
rhand -17.66988973974849 23.296243269007086
rfingers 7.1250199999999975
rthumb 8.588592090545179 -6.795524146579174
41
root 0.6100816292558652 17.88542702615582 16.518978165664677 -3.3696248435036225 -6.560415991752899 -0.5496023615010159
lfemur 3.6960660517994857 -1.816763635730239 -19.385683555090115
ltibia 47.44490700043524
lfoot 3.692192516415054 -7.832185466380228
ltoes 2.1678321008042167
rfemur -22.465206954060985 4.599288945919805 27.046835707464933
rtibia 25.81318945365988
rfoot -14.413284530976952 -2.9648243634122964
rtoes 7.334608683761468
lowerback 10.214813845762906 -0.7152947508759399 -0.430216884673325
upperback 0.7332938332414101 -0.8435088132561852 2.167175585383701
thorax -4.94440363306711 -0.39314926154076557 2.6520342251500666
lowerneck -16.984081108608336 -2.6132639475969888 -2.221941420931257
upperneck 20.99586964201743 -3.2225800808196254 -0.21736798034806903
head 9.4105853989844 -1.6283458646995848 -0.10222500174683366
lclavicle -3.254525358321188e-15 -7.210584609988617e-16
lhumerus -26.15702085089954 -2.4993916413360875 82.98845690069193
lradius 22.038307495419865
lwrist 4.586802721289171
lhand -28.304671824669995 20.806896289800562
lfingers 7.1250199999999975
lthumb -1.6800183277025451 50.77620894792496
rclavicle -3.254525358321188e-15 -7.210584609988617e-16
rhumerus -30.72406640158579 -25.099324563991566 -78.1779644548471
rradius 24.004329086486738
rwrist 8.945822360401538
rhand -17.794204670714272 22.886599933635118
rfingers 7.1250199999999975
rthumb 8.468651949684162 -7.206863873071505
42
root 0.577588718990584 17.818259248859857 17.07538256763745 -3.466189205917954 -6.761671566446734 -1.995043588391901
lfemur 0.5522556993829753 -0.5160868986673679 -15.911750050427756
ltibia 53.48035151130007
lfoot 2.2290206378748287 -5.63699608112634
ltoes 2.7601208239598027
rfemur -20.97704422782182 5.3776694480653235 28.86529569751529
rtibia 29.39480916827123
rfoot -16.956915893563224 -5.233560489826744
rtoes 8.410678358719556
lowerback 10.431460482281938 -0.35011276258928536 0.6240489516129574
upperback 0.8063577275373345 -0.1693873042412095 2.4583126510417452
thorax -5.040371179990265 -0.07881700089806354 2.3995123884788274
lowerneck -17.06400854195297 -2.6089751390026206 -1.9341778859053336
upperneck 20.9868817654647 -3.219931627444861 -0.3196979243482494
head 9.425405201562786 -1.6289496937079104 -0.18109388228398368
lclavicle -2.935118288905375e-15 -5.080088167522986e-16
lhumerus -26.693280536230024 -1.5082469247465566 83.3563541197073
lradius 20.500610874168423
lwrist 4.353401235048277
lhand -28.200687417104568 21.654557207267004
lfingers 7.1250199999999975
lthumb -1.5796086700881267 51.63040287578543
rclavicle -2.935118288905375e-15 -5.080088167522986e-16
rhumerus -29.721514214053702 -23.5036879913916 -78.42443601430463
rradius 23.40874388411841
rwrist 8.348490515616614
rhand -17.907431367922324 22.540627019833057
rfingers 7.1250199999999975
rthumb 8.359440543390086 -7.588629968907003
